<svg xmlns="http://www.w3.org/2000/svg" viewBox="0 0 100 100" xmlns:xlink="http://www.w3.org/1999/xlink" version="1.1"  ><g transform="translate(0 0) scale(1)" id="containerlessSvgTemplate"><g fill="#FFFFFF"><path d="M80.3 21.3c-1.8 1.8-3.5 4.9-3.7 5.6-.8 1.4-1.5 3.1-2.1 4.6-.1.2-.2.4-.2.6-1.3 2.8-10 4.1-10 4.1l7.7 1.1c-.9 1.8-1.8 3.5-2.8 4.9 0 0 0 .1-.1.1-.1.1-.1.2-.2.3-3.8 5.9-7.5 8.7-7.8 9-3.3 2.8-6.9 5.1-10.9 6.9-3 1.3-6.1 2.4-9.1 3.5-.2.1-.4.2-.5.3-.1.1-.2.2-.3.4L33.4 71c-1.5 1.5-1.1-.6-1.1-.6 2.5-8.1 6.4-15.5 11.2-22.4 4.2-6 8.9-11.4 14.6-16 3.4-2.7 7-5 11.1-6.6h.1c.1-.1.2-.2.2-.3-1.4.5-2.8.9-4.2 1.5-7.6 3-13.8 7.9-19.3 14C41.7 45.4 38 51 35.8 57c-1.1.7-1.3.2-1.3-.2-.5-3.8-.9-7.6.2-11.3 3.2-11.4 10.3-18.9 20.6-23 0 0 7.6-3.2 18.5-2.9H75.5c1.6.1 2.9.2 4.1.4.7 0 1.1.8.7 1.3zm-13.9 56V54.1c-.9.8-1.6 1.4-1.9 1.7-1.4 1.2-3 2.4-4.6 3.5V74H26.1V40.3h4.6c.9-2.3 1.9-4.5 3.1-6.6h-11c-1.8 0-3.3 1.5-3.3 3.3v40.3c0 1.8 1.5 3.3 3.3 3.3h40.3c1.9 0 3.3-1.5 3.3-3.3z"></path></g></g></svg>