<svg xmlns="http://www.w3.org/2000/svg" viewBox="0 0 100 21.059914210599143" xmlns:xlink="http://www.w3.org/1999/xlink" version="1.1"  ><g transform="translate(50 0) scale(0.21059914210599143)" id="logotypeSvgTemplate"><g fill="#000000"><g transform="translate(-231.50459921156371 98.55453350854138) scale(1.8250839538618773)" fill="#000000"><g id="line1" fill="#000000"><path d="M18.864-24.120C20.832-26.664 21.816-29.808 21.816-33.552L12.816-33.552C12.816-30.480 11.688-28.944 9.432-28.944C6.984-28.944 5.760-30.240 5.760-32.832C5.760-36.096 7.596-38.400 11.268-39.744C14.940-41.088 21.600-41.760 31.248-41.760L31.968-41.760L18.936-8.640L14.256-8.640L14.256 0L32.760 0L32.760-8.640L28.440-8.640L29.952-12.672L48.816-12.672L50.328-8.640L46.080-8.640L46.080 0L64.584 0L64.584-8.640L59.832-8.640L46.728-41.760L50.976-41.760L50.976-50.400L31.248-50.400C19.200-50.400 10.440-48.840 4.968-45.720C-0.504-42.600-3.240-38.304-3.240-32.832C-3.240-29.376-2.208-26.424-0.144-23.976C1.920-21.528 5.112-20.304 9.432-20.304C13.752-20.304 16.896-21.576 18.864-24.120ZM39.384-37.728L45.792-20.592L32.904-20.592Z"></path><path d="M82.735 0.792C86.239 0.792 90.199-0.576 94.615-3.312C95.575-0.864 97.723 0.360 101.059 0.360C104.395 0.360 107.095-0.192 109.159-1.296L109.159-7.560L103.255-7.560L103.255-36.000L89.431-36.000L89.431-28.080L93.895-28.080L93.895-12.240C89.959-9.312 86.983-7.848 84.967-7.848C82.951-7.848 81.643-8.376 81.043-9.432C80.443-10.488 80.143-12.072 80.143-14.184L80.143-36.000L65.239-36.000L65.239-28.440L70.783-28.440L70.783-14.184C70.783-9.528 71.647-5.868 73.375-3.204C75.103-0.540 78.223 0.792 82.735 0.792Z"></path><path d="M111.254-28.080L117.518-28.080L117.518-9.144C117.518-6.216 118.298-3.840 119.858-2.016C121.418-0.192 123.938 0.720 127.418 0.720C130.898 0.720 134.174-0.144 137.246-1.872L133.790-9.216C131.534-8.304 129.950-7.848 129.038-7.848C128.126-7.848 127.538-8.052 127.274-8.460C127.010-8.868 126.878-9.480 126.878-10.296L126.878-28.080L135.446-28.080L135.446-36.000L126.878-36.000L126.878-45.504L120.614-45.504C120.134-43.152 119.102-39.984 117.518-36.000L111.254-35.280Z"></path><path d="M154.966-7.920L154.966-23.760C158.758-26.640 161.710-28.080 163.822-28.080C165.934-28.080 167.278-27.564 167.854-26.532C168.430-25.500 168.718-23.928 168.718-21.816L168.718-7.920C168.718-4.992 169.282-2.880 170.410-1.584C171.538-0.288 173.566 0.360 176.494 0.360C179.422 0.360 181.918-0.192 183.982-1.296L183.982-7.560L178.078-7.560L178.078-21.816C178.078-26.472 177.214-30.120 175.486-32.760C173.758-35.400 170.638-36.720 166.126-36.720C162.814-36.720 159.094-35.664 154.966-33.552L154.966-54.000L140.062-54.000L140.062-46.080L145.606-46.080L145.606-7.920L140.062-7.920L140.062 0L161.230 0L161.230-7.920Z"></path><path d="M198.461 0.720C202.109 0.720 205.421-1.080 208.397-4.680C208.397-1.320 210.893 0.360 215.885 0.360C219.005 0.360 221.597-0.192 223.661-1.296L223.661-7.560L217.757-7.560L217.757-24.696C217.757-28.344 216.581-31.260 214.229-33.444C211.877-35.628 208.613-36.720 204.437-36.720C202.325-36.720 199.697-36.456 196.553-35.928C193.409-35.400 190.661-34.680 188.309-33.768L188.309-23.040L196.589-23.040L196.589-27.144C198.797-27.768 201.317-28.080 204.149-28.080C206.981-28.080 208.397-26.952 208.397-24.696L208.397-22.104L202.709-22.104C197.477-22.104 193.517-20.928 190.829-18.576C188.141-16.224 186.797-13.356 186.797-9.972C186.797-6.588 187.829-3.960 189.893-2.088C191.957-0.216 194.813 0.720 198.461 0.720ZM199.109-7.920C197.141-7.920 196.157-8.568 196.157-9.864C196.157-11.160 196.685-12.192 197.741-12.960C198.797-13.728 200.429-14.112 202.637-14.112L208.397-14.112L208.397-13.824C205.517-9.888 202.421-7.920 199.109-7.920Z"></path><path d="M240.660-7.920L240.660-24.336C244.260-26.352 247.692-27.360 250.956-27.360L254.196-26.496L256.932-35.640L251.820-36.720C248.508-36.720 244.620-35.208 240.156-32.184L239.292-36.000L225.756-36.000L225.756-28.080L231.300-28.080L231.300-7.920L225.756-7.920L225.756 0L245.844 0L245.844-7.920Z"></path></g></g></g></g></svg>